<svg
  width="128"
  height="128"
  viewBox="0 0 128 128"
  fill="none"
  xmlns="http://www.w3.org/2000/svg"
>
  <!-- Bulb and base rotated 45deg, L cutout stays upright -->
  <g>
    <mask id="l-cutout">
      <rect x="0" y="0" width="128" height="128" fill="white"/>
      <!-- L cutout, moved down by 3 pixels -->
      <rect x="52" y="18" width="17" height="58" fill="black"/>
      <rect x="52" y="72" width="44" height="17" fill="black"/>
    </mask>
    <!-- Bulb and base rotated 45deg around center (64,64), mask applied after rotation so L stays upright -->
    <g mask="url(#l-cutout)">
      <g transform="scale(1.42 1.42) translate(-18 -20) rotate(45 64 64)">
        <path d="M64 20c-22 0-36 16-36 36 0 13 8 24 18 29v3a6 6 0 0 0 6 6h24a6 6 0 0 0 6-6v-3c10-5 18-16 18-29 0-20-14-36-36-36z" fill="#C9A100"/>
        <rect x="60" y="93" width="8" height="1" rx="0.5" fill="#C9A100"/>
        <rect x="50" y="96" width="28" height="8" rx="4" fill="#C9A100"/>
        <rect x="52" y="106" width="24" height="6" rx="3" fill="#C9A100"/>
        <rect x="54" y="114" width="20" height="4" rx="2" fill="#C9A100"/>
      </g>
    </g>
  </g>
</svg>
